<?xml version="1.0" encoding="iso-8859-1"?>
<!-- Generator: Adobe Illustrator 16.0.0, SVG Export Plug-In . SVG Version: 6.00 Build 0)  -->
<!DOCTYPE svg PUBLIC "-//W3C//DTD SVG 1.1//EN" "http://www.w3.org/Graphics/SVG/1.1/DTD/svg11.dtd">
<svg version="1.1" id="Capa_1" xmlns="http://www.w3.org/2000/svg" xmlns:xlink="http://www.w3.org/1999/xlink" x="0px" y="0px"
	 width="575.961px" height="575.961px" viewBox="0 0 575.961 575.961" style="enable-background:new 0 0 575.961 575.961;"
	 xml:space="preserve">
<g>
	<g>
		<path d="M58.354,415.19h57.773l159.486,99.965c9.246,5.795,19.858,8.857,30.691,8.857c14.969,0,29.19-5.711,40.047-16.078
			c5.543-5.295,9.91-11.525,12.979-18.525c3.226-7.352,4.861-15.182,4.861-23.275V288.083v-0.205V109.826
			c0-8.093-1.636-15.925-4.862-23.277c-3.07-6.997-7.438-13.229-12.979-18.522c-10.855-10.369-25.077-16.079-40.046-16.079
			c-10.834,0-21.447,3.063-30.692,8.858l-159.158,99.759H58.354c-31.9,0-57.854,25.953-57.854,57.854v138.918
			C0.5,389.237,26.453,415.19,58.354,415.19z M43.34,218.419c0-8.292,6.722-15.014,15.014-15.014h60.058
			c6.769,0,13.401-1.906,19.136-5.502L298.365,97.104c2.54-1.593,5.274-2.316,7.938-2.316c7.821,0,15.048,6.236,15.048,15.038
			v178.052v0.205v178.051c0,8.803-7.226,15.037-15.048,15.037c-2.664,0-5.398-0.723-7.938-2.316L137.221,377.853
			c-5.736-3.596-12.367-5.502-19.137-5.502h-59.73c-8.292,0-15.014-6.723-15.014-15.014V218.419z"/>
		<path d="M306.304,524.513c-10.927,0-21.632-3.089-30.957-8.934L115.983,415.69h-57.63C26.177,415.69,0,389.513,0,357.337V218.419
			c0-32.176,26.177-58.354,58.354-58.354h57.957l159.036-99.683c9.324-5.845,20.029-8.934,30.958-8.934
			c15.098,0,29.442,5.759,40.392,16.217c5.59,5.339,9.994,11.625,13.092,18.683c3.254,7.415,4.904,15.314,4.904,23.478v356.308
			c0,8.162-1.649,16.061-4.903,23.477c-3.094,7.056-7.499,13.343-13.092,18.686C335.745,518.754,321.4,524.513,306.304,524.513z
			 M58.354,161.065C26.729,161.065,1,186.794,1,218.419v138.918c0,31.625,25.729,57.354,57.354,57.354h57.917l0.122,0.076
			l159.486,99.965c9.166,5.745,19.686,8.781,30.425,8.781c14.838,0,28.938-5.661,39.701-15.939
			c5.498-5.252,9.826-11.431,12.867-18.365c3.198-7.288,4.819-15.052,4.819-23.074V109.826c0-8.024-1.622-15.788-4.82-23.076
			c-3.044-6.937-7.373-13.114-12.867-18.361c-10.762-10.279-24.86-15.94-39.7-15.94c-10.74,0-21.261,3.037-30.426,8.782
			l-159.28,99.835H58.354z M306.304,481.671c-2.872,0-5.709-0.827-8.204-2.393L136.955,378.276
			c-5.662-3.55-12.188-5.426-18.871-5.426h-59.73c-8.554,0-15.514-6.959-15.514-15.514V218.419c0-8.554,6.959-15.514,15.514-15.514
			h60.058c6.684,0,13.209-1.876,18.871-5.426L298.1,96.681c2.496-1.565,5.333-2.393,8.204-2.393c8.573,0,15.548,6.97,15.548,15.538
			v356.308C321.852,474.701,314.877,481.671,306.304,481.671z M58.354,203.905c-8.003,0-14.514,6.511-14.514,14.514v138.918
			c0,8.003,6.511,14.514,14.514,14.514h59.73c6.872,0,13.581,1.929,19.402,5.578l161.145,101.002c2.336,1.466,4.989,2.24,7.673,2.24
			c8.021,0,14.548-6.521,14.548-14.537V109.826c0-8.016-6.526-14.538-14.548-14.538c-2.683,0-5.336,0.774-7.673,2.24
			L137.813,198.327c-5.821,3.649-12.53,5.578-19.402,5.578H58.354z"/>
	</g>
	<g>
		<path d="M427.401,358.872c4.183,4.184,9.664,6.273,15.146,6.273c5.481,0,10.964-2.09,15.146-6.273l40.601-40.6l40.6,40.6
			c4.183,4.184,9.665,6.273,15.146,6.273c5.482,0,10.964-2.09,15.146-6.273c8.365-8.365,8.365-21.928,0-30.293l-40.601-40.599
			l40.6-40.599c8.364-8.365,8.364-21.928,0-30.293c-8.365-8.365-21.929-8.365-30.293,0l-40.6,40.6l-40.6-40.6
			c-8.365-8.365-21.929-8.365-30.293,0s-8.364,21.927,0,30.293l40.6,40.599l-40.6,40.599
			C419.037,336.944,419.037,350.507,427.401,358.872z"/>
		<path d="M554.041,365.646c-5.856,0-11.361-2.28-15.5-6.42l-40.246-40.246l-40.247,40.246c-4.139,4.14-9.644,6.42-15.5,6.42
			s-11.361-2.28-15.5-6.42c-8.546-8.547-8.546-22.453,0-31l40.246-40.246l-40.246-40.246c-8.546-8.547-8.546-22.454,0-31
			c4.14-4.14,9.645-6.42,15.5-6.42s11.36,2.28,15.5,6.42l40.246,40.247l40.246-40.247c4.14-4.14,9.645-6.42,15.499-6.42
			c5.855,0,11.36,2.28,15.501,6.42c8.546,8.547,8.546,22.453,0,31l-40.246,40.246l40.247,40.246c4.141,4.141,6.42,9.645,6.42,15.5
			s-2.279,11.359-6.42,15.5C565.402,363.365,559.897,365.646,554.041,365.646z M498.295,317.565l40.953,40.953
			c3.95,3.951,9.204,6.127,14.793,6.127s10.843-2.176,14.793-6.127c8.157-8.157,8.157-21.429,0-29.586L527.88,287.98l40.953-40.953
			c8.156-8.157,8.156-21.429,0-29.586c-3.951-3.951-9.205-6.127-14.794-6.127c-5.588,0-10.841,2.176-14.792,6.127l-40.953,40.954
			l-40.953-40.954c-3.951-3.951-9.205-6.127-14.793-6.127c-5.589,0-10.842,2.176-14.793,6.127c-8.156,8.156-8.156,21.429,0,29.586
			l40.953,40.953l-40.953,40.953c-8.156,8.157-8.156,21.429,0,29.586c3.95,3.951,9.204,6.127,14.793,6.127
			s10.843-2.176,14.793-6.127L498.295,317.565z"/>
	</g>
</g>
<g>
</g>
<g>
</g>
<g>
</g>
<g>
</g>
<g>
</g>
<g>
</g>
<g>
</g>
<g>
</g>
<g>
</g>
<g>
</g>
<g>
</g>
<g>
</g>
<g>
</g>
<g>
</g>
<g>
</g>
</svg>
