<?xml version="1.0" standalone="no"?>
<!DOCTYPE svg PUBLIC "-//W3C//DTD SVG 20010904//EN"
 "http://www.w3.org/TR/2001/REC-SVG-20010904/DTD/svg10.dtd">
<svg version="1.0" xmlns="http://www.w3.org/2000/svg"
 width="512.000000pt" height="512.000000pt" viewBox="0 0 512.000000 512.000000"
 preserveAspectRatio="xMidYMid meet">
<metadata>
Created by potrace 1.14, written by Peter Selinger 2001-2017
</metadata>
<g transform="translate(0.000000,512.000000) scale(0.100000,-0.100000)"
fill="#000000" stroke="none">
<path d="M2507 4850 l-62 -132 -37 4 c-21 2 -38 0 -38 -5 0 -4 -6 -5 -12 -1
-7 5 -51 9 -98 11 -47 2 -93 5 -103 7 -18 4 -18 4 -2 -14 10 -11 22 -17 28
-13 5 3 7 1 4 -4 -4 -6 34 -48 83 -93 50 -46 90 -90 90 -99 0 -9 -12 -63 -26
-121 -14 -58 -27 -110 -28 -117 -1 -7 -14 -25 -27 -41 -20 -21 -34 -28 -57
-26 -18 1 -32 -2 -32 -7 0 -4 -7 -6 -15 -3 -8 4 -23 0 -32 -7 -14 -12 -16 -12
-8 0 6 10 4 12 -4 7 -7 -5 -10 -14 -7 -22 3 -8 1 -14 -5 -14 -6 0 -8 -4 -4 -9
3 -6 -9 -7 -30 -4 -21 3 -35 1 -35 -4 0 -6 -15 -13 -32 -17 -40 -8 -21 -25 20
-19 l27 5 -25 -21 c-14 -12 -33 -19 -43 -17 -10 3 -21 -2 -24 -10 -3 -8 -9
-11 -14 -8 -5 3 -17 1 -26 -5 -15 -8 -14 -10 12 -16 46 -10 52 -13 28 -14 -13
-1 -23 -6 -23 -11 0 -6 -18 -30 -40 -54 -22 -24 -40 -51 -40 -61 0 -17 2 -17
23 2 33 30 48 37 41 19 -3 -9 -10 -16 -15 -16 -5 0 -9 -7 -9 -15 0 -20 9 -19
33 3 19 17 20 16 13 -30 -8 -55 2 -62 32 -20 16 21 20 23 19 8 -3 -34 18 -27
41 15 20 35 27 40 49 34 15 -3 32 -1 41 7 13 11 14 11 8 0 -4 -7 -19 -17 -33
-23 -13 -5 -21 -14 -18 -19 4 -6 1 -9 -7 -8 -7 2 -12 -2 -11 -9 2 -6 -6 -15
-17 -18 -10 -3 -17 -12 -14 -19 3 -8 -10 -17 -37 -25 -37 -11 -39 -14 -23 -25
17 -13 16 -14 -7 -22 -13 -4 -32 -7 -41 -5 -13 1 -16 -2 -12 -13 8 -20 -15
-21 -42 -1 -12 8 -24 11 -28 8 -3 -3 -6 -1 -6 6 0 7 -5 9 -10 6 -8 -5 -7 -11
1 -21 16 -19 4 -30 -16 -14 -8 7 -24 10 -35 7 -13 -3 -31 4 -50 19 -29 25 -45
20 -34 -11 6 -14 3 -16 -12 -12 -10 3 -32 9 -49 13 -29 7 -29 6 -13 -12 24
-28 10 -43 -44 -47 -10 -1 -18 -7 -18 -13 0 -14 22 -24 53 -25 l22 0 -22 -9
c-29 -12 -50 -50 -28 -50 9 0 13 5 9 11 -4 7 1 7 15 -1 17 -8 20 -15 12 -24
-15 -18 -1 -28 17 -13 11 8 13 8 9 0 -10 -16 27 -5 50 15 23 20 43 26 43 12 0
-13 -77 -90 -89 -90 -20 0 -64 -110 -63 -158 0 -160 165 -268 309 -203 36 17
41 17 36 4 -4 -10 -2 -14 5 -9 6 3 14 2 17 -4 4 -7 11 -7 18 -2 15 12 48 12
41 0 -3 -5 -10 -5 -16 -2 -7 4 -8 2 -4 -4 9 -15 -41 -62 -66 -62 -11 0 -17 -4
-14 -9 3 -5 -3 -11 -14 -14 -11 -3 -18 -2 -16 2 3 4 -4 7 -14 7 -10 0 -16 -4
-13 -9 5 -9 -43 1 -69 15 -22 11 -23 2 -3 -18 8 -9 15 -20 15 -26 0 -6 -6 -6
-15 2 -11 9 -15 9 -15 1 0 -15 -66 -9 -82 7 -19 19 -25 14 -26 -19 -1 -42 -5
-44 -33 -14 -22 23 -46 35 -35 17 2 -4 1 -14 -3 -21 -7 -10 -13 -8 -30 10 -19
21 -27 17 -22 -13 0 -5 -4 -8 -9 -8 -13 0 -60 49 -60 61 0 5 -4 9 -9 9 -5 0
-7 -10 -5 -22 2 -13 2 -17 -2 -10 -3 6 -12 12 -20 12 -8 0 -14 5 -14 10 0 6
-4 10 -9 10 -5 0 -7 -9 -4 -20 3 -11 9 -17 14 -14 5 3 6 -2 3 -10 -7 -18 -24
-22 -24 -6 0 6 -4 10 -10 10 -5 0 -10 -7 -10 -15 0 -8 -5 -24 -12 -34 -9 -15
-17 -17 -40 -10 -21 6 -28 5 -25 -4 3 -7 10 -11 16 -9 7 1 10 -2 6 -8 -3 -5 2
-13 12 -16 10 -3 27 -10 38 -14 11 -5 27 -11 35 -13 9 -4 6 -6 -7 -6 -14 -1
-23 -7 -23 -17 0 -9 -8 -23 -17 -30 -17 -13 -17 -14 2 -8 19 5 19 5 2 -9 -13
-11 -15 -16 -5 -19 18 -7 48 2 48 14 0 6 6 5 15 -2 12 -10 16 -9 20 2 6 16 45
22 45 7 0 -6 -3 -8 -7 -6 -9 4 -37 -24 -41 -42 -3 -14 32 2 43 19 3 6 14 10
23 9 11 0 12 -3 5 -6 -7 -2 -13 -10 -13 -16 0 -6 14 2 31 19 16 16 27 22 24
13 -5 -13 0 -17 22 -17 15 0 36 4 46 9 11 7 17 6 17 -1 0 -7 6 -8 19 0 11 5
30 10 43 10 20 -1 18 -3 -12 -19 -31 -17 -127 -111 -113 -111 3 0 0 -6 -6 -13
-6 -8 -7 -17 -3 -22 4 -4 -6 0 -22 11 l-29 18 8 -24 c7 -22 6 -23 -9 -11 -9 7
-16 10 -16 7 0 -4 -10 -2 -21 5 -15 8 -19 8 -15 0 8 -12 -6 -15 -18 -4 -3 4
-17 8 -29 10 -12 2 -17 0 -12 -4 24 -19 10 -28 -38 -26 -28 1 -59 -3 -69 -8
-17 -9 -17 -12 -3 -25 8 -8 19 -12 25 -9 5 3 10 2 10 -4 0 -5 -9 -12 -19 -16
-13 -4 -18 -13 -16 -26 6 -29 15 -40 27 -33 7 5 8 2 3 -5 -5 -9 -10 -10 -18
-2 -13 13 -30 15 -23 2 4 -5 0 -11 -6 -14 -7 -2 2 -4 19 -5 18 0 35 4 38 9 7
11 26 12 24 2 -5 -33 2 -42 25 -33 29 11 36 5 36 -29 0 -19 -8 -30 -30 -40
-100 -44 -158 -158 -131 -258 24 -87 111 -163 191 -165 31 -1 55 -18 26 -18
-9 0 -16 -4 -16 -9 0 -13 -33 -8 -48 7 -19 17 -35 4 -17 -14 8 -9 15 -19 15
-24 0 -5 8 -7 18 -4 13 5 14 4 3 -4 -9 -6 -23 -7 -38 -1 -27 10 -30 2 -5 -18
15 -13 14 -13 -8 -2 -14 6 -33 18 -42 27 -10 8 -18 10 -18 5 0 -6 7 -16 15
-23 13 -10 12 -15 -8 -30 -16 -13 -26 -15 -34 -8 -9 7 -13 7 -13 -1 0 -6 -17
-11 -40 -11 -23 0 -40 -5 -40 -11 0 -6 6 -9 13 -6 8 3 20 1 28 -4 11 -7 8 -9
-9 -9 -13 0 -21 -4 -18 -8 6 -10 -61 -8 -71 1 -3 4 -16 7 -27 7 -18 -1 -18 -3
6 -16 16 -8 28 -16 28 -17 0 -1 -29 -2 -65 -1 -36 0 -65 -3 -65 -8 0 -4 3 -7
8 -6 13 4 52 -13 52 -23 0 -5 -16 -6 -35 -3 -38 6 -51 -14 -15 -23 11 -3 17
-9 14 -14 -3 -5 1 -9 8 -10 7 0 -2 -5 -20 -10 -18 -5 -30 -14 -27 -20 4 -5 15
-7 26 -4 14 5 17 3 13 -9 -5 -12 -2 -15 12 -9 12 4 15 3 10 -5 -4 -7 -1 -15 7
-18 9 -3 13 -14 10 -27 -4 -19 -2 -18 15 6 17 26 20 27 27 10 7 -17 8 -17 15
2 8 18 9 17 9 -7 1 -16 -2 -27 -6 -26 -5 1 -18 -4 -31 -11 -19 -10 -26 -10
-40 1 -15 11 -15 11 -5 -3 10 -12 9 -18 -8 -32 -11 -10 -24 -15 -30 -12 -5 4
-9 3 -8 -2 1 -4 1 -16 0 -27 -1 -15 -4 -16 -15 -7 -11 9 -16 9 -22 0 -4 -8 -3
-9 4 -5 18 11 15 -29 -3 -44 -8 -7 -15 -9 -15 -5 0 4 -6 2 -14 -4 -17 -14 -59
-23 -51 -11 3 5 1 11 -5 15 -6 4 -8 9 -6 13 2 4 -2 13 -10 19 -15 15 -29 0
-17 -19 4 -7 8 -20 10 -28 1 -12 -1 -11 -11 3 -7 9 -18 17 -24 17 -6 0 -12 3
-15 8 -2 4 -3 2 -1 -4 1 -6 -2 -17 -7 -25 -7 -11 -9 -9 -9 9 0 12 -4 22 -10
22 -5 0 -7 -8 -4 -17 4 -12 -1 -10 -15 7 l-21 25 10 -29 c10 -26 9 -28 -5 -16
-14 12 -15 10 -11 -14 4 -25 3 -26 -11 -14 -15 11 -16 11 -10 -5 6 -15 3 -17
-13 -12 -36 11 -21 -5 22 -26 35 -16 37 -19 15 -16 -22 3 -27 1 -23 -10 3 -8
6 -17 6 -19 0 -2 9 -4 19 -4 11 0 23 -5 27 -12 4 -6 3 -8 -4 -5 -14 9 -43 -3
-36 -14 3 -5 14 -9 24 -9 10 0 22 -6 26 -12 4 -7 4 -10 -1 -6 -7 7 -65 -17
-65 -28 0 -2 14 2 30 11 17 9 30 11 30 5 0 -5 5 -10 11 -10 5 0 7 5 3 11 -4 7
-1 10 7 7 8 -3 20 2 27 11 11 14 12 13 7 -6 -5 -17 -2 -23 9 -23 9 0 16 4 16
10 0 5 7 7 16 3 9 -3 11 -9 6 -12 -15 -10 -23 -59 -10 -67 7 -4 8 -3 4 4 -9
15 6 16 22 2 9 -7 9 -7 2 2 -21 26 -12 38 22 26 26 -9 33 -8 44 6 10 14 17 15
32 7 11 -6 22 -7 26 -4 3 3 6 1 6 -4 0 -6 8 -10 17 -9 23 4 42 -15 35 -34 -5
-12 -3 -13 9 -4 18 14 47 10 68 -10 13 -14 13 -16 1 -17 -8 -1 -19 -1 -23 0
-5 1 -7 -4 -4 -11 2 -7 13 -12 23 -10 18 2 18 2 -1 -10 -11 -7 -24 -13 -30
-13 -5 0 -9 -8 -9 -17 1 -10 -1 -17 -5 -16 -14 4 -51 -14 -46 -23 3 -5 0 -6
-8 -3 -8 3 -18 -6 -25 -21 -13 -28 -10 -32 11 -10 13 13 16 12 22 -2 3 -10 3
-14 -1 -11 -3 4 -19 1 -34 -7 -15 -8 -31 -11 -36 -7 -5 4 -3 0 3 -8 13 -19 9
-47 -11 -69 -20 -22 -21 -38 -2 -22 11 9 16 9 22 0 4 -7 3 -9 -3 -6 -6 4 -13
0 -17 -8 -3 -8 -1 -17 5 -20 10 -7 34 13 37 30 2 6 11 9 21 9 13 -1 17 4 14
12 -3 8 0 14 7 14 6 0 8 5 4 12 -5 9 -2 9 9 -1 15 -12 17 -11 17 5 0 15 2 16
9 5 8 -12 12 -12 25 -2 9 8 16 20 16 28 0 8 5 11 10 8 6 -4 8 -10 5 -15 -3 -4
4 -6 15 -3 11 3 23 10 27 16 4 6 1 7 -8 3 -8 -4 -6 -1 4 7 19 16 24 32 5 21
-7 -4 -8 -3 -4 5 4 6 12 9 17 6 10 -7 8 -33 -5 -53 -5 -8 1 -20 16 -32 19 -16
20 -19 4 -13 -12 4 -17 3 -13 -4 4 -6 -2 -13 -13 -16 -11 -3 -18 -1 -14 4 3 5
-4 9 -15 9 -15 0 -19 -4 -14 -17 5 -13 2 -15 -11 -10 -9 4 -15 3 -11 -2 3 -5
0 -13 -6 -17 -7 -4 -9 -3 -6 2 3 6 2 16 -4 24 -5 10 -9 11 -9 3 0 -7 -7 -10
-16 -6 -14 5 -14 3 -3 -16 8 -11 20 -21 27 -21 9 0 12 -6 8 -15 -3 -8 -9 -22
-12 -30 -4 -9 -1 -15 7 -15 8 -1 3 -7 -10 -14 -13 -7 -32 -11 -41 -9 -10 3
-17 -1 -17 -11 0 -15 22 -17 44 -3 6 4 15 2 18 -3 4 -7 20 -9 38 -5 18 3 27 3
22 -2 -17 -12 -16 -53 1 -53 8 0 14 4 14 8 0 10 30 9 48 -2 6 -4 12 -3 12 2 0
5 7 9 15 9 11 0 12 -4 5 -11 -5 -5 -10 -17 -9 -26 0 -10 2 -11 6 -2 2 6 9 10
14 6 5 -3 8 0 7 6 -2 7 6 17 17 23 10 7 25 17 32 24 8 7 20 10 28 7 8 -4 15
-1 15 5 0 6 -6 11 -12 11 -10 0 -9 3 1 9 8 5 10 14 6 21 -5 8 -4 11 2 7 14 -9
36 19 28 35 -4 7 0 4 9 -6 15 -18 16 -18 25 8 6 14 13 26 16 26 4 0 4 -4 1 -9
-3 -5 2 -15 11 -22 15 -12 16 -12 10 3 -3 10 -3 17 1 17 18 -3 26 2 15 9 -9 6
-6 11 8 21 12 7 18 8 15 2 -4 -5 -2 -12 4 -16 6 -4 5 -13 -2 -25 -9 -14 -15
-16 -21 -7 -5 7 -6 4 -2 -10 3 -12 1 -25 -6 -29 -8 -5 -10 -2 -7 8 4 8 0 15
-8 15 -7 0 -11 -4 -9 -8 3 -4 -3 -6 -12 -5 -21 4 -65 -23 -61 -36 2 -5 7 -9
11 -9 4 1 17 -8 29 -19 12 -11 26 -20 31 -20 5 0 -3 10 -19 22 -16 13 -32 22
-36 21 -5 -2 -8 2 -8 7 0 16 25 11 48 -10 14 -13 23 -16 28 -9 4 8 13 3 25
-12 19 -26 37 -19 44 17 2 11 4 20 4 22 1 1 7 -3 15 -10 11 -11 11 -15 -3 -25
-14 -12 -14 -12 3 -6 13 4 17 3 12 -5 -4 -7 -2 -12 4 -12 7 0 10 6 7 14 -4 10
0 14 14 13 20 -1 27 -17 7 -17 -6 0 -8 -3 -5 -6 4 -4 13 -1 22 6 9 8 15 8 15
2 0 -6 -4 -14 -10 -17 -20 -12 -30 -43 -17 -48 8 -3 13 2 13 12 -1 9 4 16 9
16 6 0 9 -7 9 -17 -1 -10 4 -14 13 -11 11 4 11 8 3 13 -6 4 -11 10 -11 14 1 3
1 7 0 9 0 1 -2 14 -4 29 -3 24 -2 26 15 16 13 -8 16 -16 9 -24 -6 -8 -2 -16
15 -27 21 -14 25 -15 30 -1 3 8 2 13 -3 9 -12 -7 -42 5 -36 14 7 12 43 6 62
-11 29 -24 40 -28 40 -13 0 8 -4 12 -9 9 -12 -8 -39 16 -32 27 3 5 10 9 15 9
6 0 7 -4 4 -10 -3 -5 -1 -10 4 -10 14 0 14 1 -5 45 -10 24 -20 35 -29 31 -10
-3 -12 0 -8 12 4 11 -2 8 -18 -8 -13 -15 -17 -17 -9 -6 14 20 14 20 -4 6 -18
-13 -19 -13 -11 0 8 13 7 13 -10 0 -11 -9 -16 -10 -11 -2 4 6 3 12 -3 12 -5 0
-12 -4 -16 -10 -3 -5 -13 -6 -23 -3 -9 3 -14 2 -9 -2 4 -5 17 -9 29 -10 12 -1
23 -6 25 -12 5 -14 -40 -11 -50 4 -4 6 -16 10 -27 8 -13 -3 -18 0 -14 7 5 7 2
8 -7 2 -22 -14 -37 -13 -43 2 -7 19 1 37 24 52 19 12 20 11 8 -8 -7 -11 -16
-20 -20 -20 -5 0 -8 -5 -8 -10 0 -16 53 -3 67 17 7 9 13 12 13 7 0 -6 -5 -15
-12 -22 -24 -24 0 -21 25 2 15 14 27 21 27 16 0 -6 5 -10 11 -10 5 0 7 5 4 10
-3 6 -1 10 4 10 6 0 11 -5 11 -11 0 -5 5 -7 12 -3 8 5 6 11 -6 19 -13 10 -14
14 -3 18 8 3 20 1 27 -3 11 -7 11 -11 1 -24 -12 -14 -11 -16 10 -13 12 2 25
10 27 17 3 7 0 10 -7 6 -6 -4 -11 -3 -11 2 0 14 25 22 51 17 25 -5 52 12 43
27 -4 6 -10 5 -15 -3 -4 -7 -11 -11 -14 -8 -3 4 1 11 8 18 22 18 43 -12 22
-32 -17 -17 -20 -32 -6 -22 17 10 34 -34 20 -51 -14 -17 -5 -18 20 -2 18 11
18 12 -2 40 -16 22 -18 31 -9 40 9 9 8 16 -4 30 -15 16 -15 18 0 24 11 4 24 0
34 -10 10 -10 12 -16 4 -16 -7 0 -12 5 -12 10 0 6 -7 10 -17 10 -15 0 -15 -2
1 -19 11 -12 14 -21 7 -26 -6 -3 -11 -11 -11 -17 0 -6 11 -1 25 12 27 25 55
35 55 19 0 -6 -7 -9 -16 -7 -10 2 -19 -3 -21 -10 -3 -8 2 -10 14 -6 14 5 15 4
4 -4 -8 -6 -21 -7 -30 -4 -14 5 -14 4 -1 -14 14 -18 14 -18 -2 -5 -23 18 -23
0 0 -19 22 -19 40 -19 52 0 6 9 10 10 10 3 0 -6 -6 -18 -13 -25 -14 -15 -16
-32 -4 -44 4 -4 7 0 7 9 0 10 5 17 10 17 7 0 8 -6 1 -17 -7 -13 -5 -21 7 -30
16 -11 16 -12 0 -13 -10 0 -18 4 -18 10 0 5 -6 9 -12 7 -7 -1 -12 4 -11 10 2
7 -2 13 -7 13 -9 0 -14 -15 -11 -33 1 -5 -9 -5 -21 -2 -22 7 -23 7 -3 -8 11
-8 22 -12 25 -9 3 4 14 9 24 10 16 3 18 1 8 -11 -10 -11 -9 -17 2 -26 8 -7 13
-20 10 -29 -3 -9 1 -6 9 8 9 14 13 29 10 33 -3 5 5 6 18 2 19 -5 21 -4 9 5
-13 10 -13 11 0 7 8 -2 15 -13 15 -25 0 -12 4 -21 8 -21 13 1 36 -34 30 -44
-3 -5 4 -4 16 2 11 7 21 16 21 22 0 6 6 7 13 3 8 -6 8 -3 -1 9 -8 9 -11 20 -8
25 3 5 -1 9 -8 9 -8 0 -12 -7 -9 -16 4 -12 3 -13 -5 -3 -5 8 -12 13 -16 12
-18 -4 -28 9 -31 38 -2 28 -1 31 13 20 8 -7 18 -13 21 -13 3 0 5 -3 4 -7 -1
-3 4 -12 12 -18 12 -10 15 -9 15 6 0 14 6 10 20 -14 11 -18 18 -37 15 -43 -4
-5 -1 -9 4 -9 6 0 12 6 13 13 0 6 2 19 3 27 1 8 -4 25 -12 37 -8 14 -9 24 -3
28 6 4 9 1 8 -6 -2 -6 3 -14 10 -16 7 -3 11 1 10 9 -2 7 3 11 12 9 8 -2 21 -4
28 -4 17 0 15 -14 -4 -21 -8 -3 -12 -2 -9 4 3 6 2 10 -4 10 -18 0 -22 -19 -6
-27 14 -8 13 -12 -5 -28 -22 -20 -26 -35 -9 -35 5 0 8 4 5 9 -3 5 2 15 11 22
15 12 16 12 10 -4 -6 -16 -4 -16 23 -2 17 9 30 11 30 6 0 -5 -6 -12 -12 -14
-10 -4 -10 -6 0 -6 7 -1 17 10 24 24 6 13 15 22 21 18 6 -4 7 -1 2 7 -6 10 -4
12 8 7 21 -8 49 2 41 15 -4 5 -10 5 -18 -1 -7 -6 -17 -6 -26 0 -12 7 -13 11
-2 18 11 6 10 10 -3 15 -24 9 -24 8 -20 -14 2 -11 -1 -23 -7 -26 -7 -5 -8 -2
-3 6 6 10 4 12 -8 7 -12 -4 -15 -1 -12 14 3 16 0 19 -15 14 -12 -4 -20 -2 -20
5 0 6 4 9 9 5 5 -3 17 5 25 17 9 12 16 18 16 13 0 -6 7 -1 15 9 14 18 15 18
15 2 0 -9 5 -14 10 -11 6 4 8 11 5 16 -4 5 -1 9 5 9 6 0 9 -8 6 -18 -7 -21 28
-60 38 -44 3 6 -1 12 -9 16 -17 6 -20 26 -4 26 5 0 7 -4 4 -10 -6 -10 9 -15
30 -10 5 1 1 -8 -10 -21 -20 -22 -20 -22 1 -15 14 4 28 1 38 -9 20 -20 20 -26
2 -19 -17 6 -31 -12 -16 -21 5 -3 10 -11 10 -18 0 -6 -7 -2 -15 9 -14 18 -15
18 -11 -6 3 -14 5 -29 5 -35 1 -5 6 -3 11 5 6 9 10 10 10 3 0 -6 -15 -22 -32
-34 -18 -13 -28 -17 -21 -9 9 12 7 15 -15 16 -15 1 -21 -1 -14 -3 15 -6 16
-53 1 -53 -5 0 -7 5 -3 12 4 7 3 8 -5 4 -6 -4 -8 -12 -5 -18 5 -8 1 -9 -10 -5
-9 4 -15 3 -11 -2 3 -5 -1 -12 -7 -14 -7 -3 -4 -6 8 -6 11 -1 25 4 32 11 7 7
12 8 12 3 0 -6 5 -3 10 5 8 13 10 13 10 -2 0 -9 -7 -18 -16 -20 -10 -2 -5 -7
15 -15 29 -11 30 -10 20 9 -8 15 -8 23 1 32 8 8 9 6 4 -8 -5 -13 -4 -17 4 -12
18 11 22 -9 6 -38 -7 -16 -14 -34 -14 -41 0 -7 -6 -16 -12 -18 -10 -4 -10 -6
-1 -6 6 -1 15 4 18 9 10 16 35 12 29 -5 -3 -8 -11 -13 -16 -12 -6 1 -12 -4
-14 -11 -1 -7 0 -8 3 -2 2 5 9 8 14 4 5 -3 12 2 15 10 3 9 10 13 15 10 5 -3 9
10 9 28 0 24 3 29 9 18 6 -8 7 -18 4 -24 -3 -5 -1 -6 5 -2 6 4 9 14 6 24 -5
14 -4 14 6 -1 10 -15 8 -23 -11 -43 -12 -13 -19 -27 -16 -31 4 -3 7 -1 7 6 0
7 4 10 9 6 5 -3 12 -1 16 4 3 6 11 8 18 5 7 -2 21 2 31 9 15 11 16 16 6 22 -9
5 -11 4 -6 -3 4 -7 2 -12 -3 -12 -6 0 -11 7 -11 16 0 12 6 15 23 11 21 -6 21
-6 3 8 -11 8 -16 15 -11 15 18 0 43 -32 38 -48 -4 -13 -3 -14 5 -4 5 7 7 23 5
35 -3 16 4 27 24 40 15 10 20 16 11 13 -10 -3 -18 -1 -18 3 0 13 29 21 35 10
4 -5 15 1 25 13 10 13 21 20 25 16 4 -4 0 -14 -9 -23 -9 -9 -15 -24 -15 -33 1
-15 2 -15 6 1 6 23 19 22 26 -2 3 -14 11 -18 25 -14 17 4 20 1 16 -19 -4 -20
-3 -21 5 -3 11 26 4 38 -19 32 -12 -3 -20 2 -24 16 -5 22 9 47 27 47 7 0 7 -4
-1 -12 -7 -7 -12 -17 -12 -23 0 -5 6 -3 13 5 13 16 37 25 37 14 0 -4 -8 -13
-17 -20 -17 -13 -17 -14 1 -7 15 5 17 3 11 -8 -4 -8 -4 -11 0 -6 5 4 19 0 32
-8 13 -9 23 -12 24 -8 0 5 5 -1 10 -12 l9 -20 -3 20 c-1 11 -8 21 -15 21 -22
3 -23 4 -11 17 10 10 17 9 37 -10 19 -18 27 -20 33 -11 4 7 11 9 15 5 4 -3 1
-13 -6 -22 -8 -10 -9 -15 -1 -15 6 0 11 -5 11 -11 0 -5 -6 -7 -12 -3 -7 4 -10
4 -6 -1 4 -4 3 -15 -2 -25 -6 -12 -5 -17 5 -17 8 0 12 4 10 8 -7 10 20 30 29
22 4 -4 4 0 0 10 -3 10 -1 17 5 17 6 0 11 -9 11 -19 0 -11 6 -21 13 -24 9 -3
9 -7 -1 -19 -10 -13 -10 -17 3 -22 9 -3 14 -10 11 -14 -3 -5 1 -9 9 -9 10 0
11 6 4 24 -5 15 -5 22 0 18 5 -3 12 -1 16 5 3 5 0 10 -7 10 -10 0 -10 2 1 9 7
5 10 14 6 21 -5 8 -1 11 11 8 12 -2 18 -11 17 -23 -1 -11 0 -14 3 -7 3 6 13
12 22 13 12 0 9 3 -7 10 -20 8 -21 12 -11 25 9 10 16 12 24 4 5 -5 15 -10 20
-10 6 0 3 5 -7 11 -9 6 -15 14 -12 20 4 5 3 9 -2 9 -4 0 -9 11 -9 25 -1 15 2
22 9 18 7 -4 8 0 4 11 -6 14 -3 16 16 12 12 -3 17 -3 10 0 -7 3 -9 12 -6 20 4
12 8 12 21 2 13 -11 14 -10 4 8 -14 26 -5 35 52 52 28 8 44 8 52 1 22 -18 34
0 31 46 -2 31 1 45 10 45 7 0 13 5 13 11 0 5 -4 8 -9 5 -5 -3 -11 1 -14 9 -4
10 -1 12 11 9 14 -5 13 -3 -2 10 -11 9 -15 16 -10 16 6 0 15 -5 21 -11 9 -9
12 -7 10 9 0 12 -7 24 -14 26 -19 8 -16 19 10 35 20 13 21 13 8 -2 -9 -11 -10
-17 -2 -17 6 0 10 -3 10 -7 -1 -5 -1 -19 0 -32 1 -24 1 -24 20 -5 10 10 17 22
15 25 -4 8 27 36 33 31 3 -2 7 -1 11 2 3 3 0 6 -7 6 -7 0 -9 5 -5 11 5 8 9 8
14 -1 4 -7 13 -9 20 -5 9 6 9 9 -1 16 -10 6 -10 9 -2 9 7 0 16 -8 22 -17 5
-10 13 -15 17 -11 4 4 1 14 -6 23 -8 10 -9 15 -1 15 6 0 11 5 11 11 0 5 -4 8
-8 5 -5 -3 -9 1 -9 9 0 11 4 11 22 -1 21 -13 35 -10 35 8 0 4 -3 7 -7 7 -20
-3 -34 2 -28 11 9 14 -18 12 -35 -3 -12 -10 -12 -9 -1 6 16 21 40 22 47 2 4
-8 10 -13 14 -10 14 9 23 -15 11 -29 -7 -9 -7 -16 1 -24 16 -16 33 -15 20 1
-18 22 1 33 53 33 39 -1 49 2 47 14 -3 12 -1 13 9 3 15 -15 33 -17 24 -4 -6
11 28 33 47 29 6 -2 13 6 15 17 1 11 0 14 -3 7 -5 -10 -9 -10 -20 -1 -10 8
-14 8 -14 1 0 -17 -37 -34 -45 -22 -4 6 -3 10 2 9 24 -4 35 2 25 14 -8 10 -3
12 25 12 22 -1 39 -8 45 -18 6 -12 5 -17 -4 -17 -9 0 -9 -3 2 -10 8 -5 11 -12
7 -17 -5 -4 -12 -1 -17 7 -9 14 -11 13 -14 -9 0 -5 -5 -13 -10 -18 -5 -5 -6
-3 -2 5 9 14 -3 16 -24 2 -13 -8 -12 -10 5 -11 11 -1 25 -1 31 0 6 1 11 -6 11
-14 0 -11 -6 -14 -16 -9 -9 3 -22 7 -28 7 -7 0 -13 4 -13 9 0 11 -33 6 -42 -7
-5 -6 -11 -5 -17 3 -7 11 -9 11 -14 -2 -5 -12 0 -16 16 -16 17 0 19 -2 7 -10
-9 -5 -19 -5 -26 0 -6 6 -15 6 -20 2 -4 -4 -2 1 5 11 8 10 9 17 3 17 -6 0 -19
-11 -29 -23 -10 -13 -26 -23 -36 -21 -10 1 -15 -2 -11 -9 3 -7 -2 -3 -10 7 -9
11 -16 15 -16 10 0 -6 3 -14 7 -18 4 -3 8 -14 9 -22 2 -13 0 -13 -17 2 -10 9
-22 14 -25 11 -4 -3 8 -15 26 -25 l32 -20 -31 2 c-28 1 -36 7 -32 28 1 10 -13
10 -22 1 -4 -3 -1 -13 6 -21 6 -9 7 -13 1 -9 -6 3 -11 0 -11 -8 0 -8 5 -11 11
-7 19 11 37 11 33 -1 -3 -10 -36 -14 -52 -7 -3 1 -11 3 -17 4 -7 1 -12 7 -11
14 3 14 -13 16 -22 3 -3 -6 3 -15 12 -20 15 -9 13 -10 -10 -7 -19 3 -25 1 -20
-7 4 -7 -2 -5 -12 3 -15 12 -17 12 -10 1 5 -8 4 -12 -1 -8 -5 3 -11 -3 -12
-14 -1 -10 -3 -28 -4 -39 -1 -11 -7 -20 -12 -20 -5 0 -7 -3 -4 -6 4 -3 16 -1
27 6 16 8 20 18 16 39 -3 20 -1 28 10 28 10 0 13 -6 10 -18 -3 -9 -1 -20 5
-24 5 -3 10 -2 10 2 0 5 10 9 23 10 21 2 21 1 3 -12 -18 -13 -18 -14 2 -12 11
0 19 4 16 8 -2 4 3 13 12 20 14 11 19 10 34 -9 15 -18 19 -19 24 -6 3 8 2 12
-3 9 -19 -11 -18 11 2 30 15 15 19 16 14 4 -3 -9 -2 -22 3 -29 5 -7 8 3 9 26
2 80 1 76 16 64 11 -9 12 -17 5 -30 -16 -29 -11 -38 5 -10 8 14 14 20 15 13 0
-7 11 -1 25 13 14 14 30 22 35 19 6 -3 7 1 4 9 -10 25 6 18 16 -7 7 -18 8 -15
5 16 -2 26 0 37 8 34 7 -2 11 -16 11 -30 -1 -15 3 -27 8 -27 5 0 7 9 3 19 -4
13 0 23 12 30 11 6 13 11 5 11 -7 0 -11 4 -7 10 9 15 31 1 31 -20 0 -15 -5
-18 -19 -14 -14 4 -17 2 -12 -6 4 -6 16 -9 27 -7 14 4 18 2 14 -9 -4 -10 -2
-12 6 -8 7 5 9 2 6 -7 -4 -10 1 -15 13 -15 12 0 15 4 9 12 -6 6 -8 14 -5 17 3
4 2 5 -2 2 -9 -7 -37 35 -28 43 3 3 10 0 15 -8 6 -8 10 -11 10 -6 0 6 6 2 13
-7 11 -15 14 -15 35 3 24 20 10 34 -19 19 -8 -4 -22 -3 -30 2 -7 5 -12 9 -9
10 3 0 14 3 25 5 11 3 26 6 33 6 6 1 12 6 12 11 0 5 -7 6 -16 3 -14 -5 -15 -4
-4 8 6 9 17 14 22 13 6 -1 13 5 15 13 4 13 3 13 -6 0 -9 -12 -11 -12 -17 3 -3
9 -10 14 -16 11 -5 -3 -7 -12 -5 -18 3 -7 0 -13 -7 -13 -6 0 -12 8 -12 18 0
10 5 15 11 12 5 -3 4 0 -2 8 -7 7 -13 20 -13 28 0 12 3 11 18 -2 15 -13 21
-14 32 -4 8 6 11 8 7 3 -4 -5 0 -17 8 -26 9 -10 15 -21 14 -26 -4 -22 2 -44
12 -44 5 0 7 6 3 13 -4 6 2 4 14 -6 11 -11 19 -24 16 -31 -2 -6 5 -12 17 -13
16 -2 18 1 10 11 -9 11 -6 12 14 8 14 -2 25 0 25 6 0 6 9 10 20 9 11 -1 20 -5
20 -10 0 -5 7 -6 16 -3 8 3 12 2 9 -3 -3 -5 -1 -12 5 -16 15 -9 12 13 -6 40
-16 24 -15 25 7 26 13 1 29 2 34 4 6 1 17 3 25 4 12 1 11 5 -4 16 -15 11 -16
18 -8 28 9 10 9 16 0 25 -9 9 -7 12 8 12 30 0 35 10 15 31 -12 13 -26 17 -46
13 -22 -4 -26 -2 -17 8 8 10 4 13 -21 12 -39 -1 -63 24 -40 41 9 7 13 19 9 31
-8 26 -8 35 1 32 5 -2 7 -6 6 -9 -1 -3 11 -5 28 -4 16 1 29 -2 29 -7 0 -13 27
-9 40 7 7 8 16 12 21 9 5 -3 12 2 15 10 3 9 14 16 23 16 11 1 9 5 -9 16 -14 8
-18 13 -9 11 9 -3 16 1 16 8 0 6 -10 12 -21 11 -12 -1 -20 4 -19 11 2 6 -6 15
-17 18 -12 4 -20 15 -20 30 0 18 -4 22 -19 18 -10 -3 -22 0 -25 6 -4 6 -1 9 7
5 19 -7 28 8 18 25 -5 8 -31 14 -64 14 l-55 2 19 27 c14 19 16 29 8 34 -8 5
-9 3 -4 -6 6 -9 4 -11 -5 -5 -8 5 -11 4 -7 -2 4 -6 0 -16 -8 -23 -8 -7 -15 -9
-15 -4 0 5 -5 2 -10 -6 -8 -12 -9 -11 -7 7 4 28 27 54 40 46 6 -4 8 0 4 10 -8
21 13 18 30 -3 10 -13 13 -11 22 10 8 19 10 21 10 6 1 -15 4 -16 15 -7 10 8
16 9 21 1 4 -6 1 -9 -6 -8 -7 2 -13 -2 -14 -9 0 -18 -23 -38 -32 -28 -5 4 -2
10 5 12 6 3 12 9 12 15 0 7 -5 7 -13 -1 -8 -6 -18 -7 -22 -3 -5 4 -5 1 -1 -6
4 -7 3 -19 -4 -27 -8 -10 -8 -15 1 -21 7 -4 9 -3 6 3 -3 5 0 10 8 10 8 0 12
-5 9 -11 -3 -6 4 1 16 17 24 29 36 34 43 14 2 -6 3 -4 2 6 -2 9 3 17 11 17 8
0 11 6 8 15 -4 8 -1 15 5 15 6 0 11 -7 11 -15 0 -8 4 -15 10 -15 5 0 9 6 7 13
-1 6 4 11 11 10 6 -2 12 2 12 8 0 6 -6 9 -14 6 -8 -3 -20 2 -28 11 -12 16 -11
16 6 2 18 -14 19 -13 14 6 -5 18 -2 21 16 17 21 -4 21 -4 2 11 -11 9 -15 16
-8 16 6 0 10 6 8 13 -1 6 -1 9 1 5 3 -5 12 -8 21 -8 14 0 14 2 3 9 -7 5 -10
14 -7 20 5 7 -4 11 -26 12 l-33 2 35 7 c31 7 31 10 1 14 -5 0 -13 4 -17 9 -7
7 8 11 36 8 13 -2 13 -1 0 8 -8 6 -23 11 -33 11 -10 0 -15 5 -12 10 9 14 -19
12 -33 -2 -9 -9 -12 -9 -12 0 0 7 -9 12 -20 12 -13 0 -20 7 -20 20 0 11 0 23
-1 28 -1 11 -40 74 -63 102 -12 14 -17 22 -12 18 5 -4 15 -3 23 3 10 9 13 8
13 0 0 -7 4 -10 8 -7 5 3 15 -6 22 -19 17 -32 32 -32 20 0 -7 19 -6 23 6 18 8
-3 19 -14 25 -24 14 -27 38 -25 32 3 -3 17 -2 19 5 9 5 -7 14 -11 20 -7 6 3
13 2 16 -2 3 -5 17 -7 31 -4 24 4 25 6 11 27 -14 22 -14 22 27 14 37 -6 40 -6
22 7 -10 8 -22 14 -25 14 -13 0 -6 35 8 46 25 18 7 45 -25 40 -25 -5 -26 -4
-10 8 16 13 16 14 -5 20 -13 3 -40 6 -60 6 -20 0 -40 5 -43 11 -4 6 -14 8 -22
5 -8 -3 -12 -2 -9 3 7 11 -17 21 -50 21 -13 0 -24 5 -24 10 0 6 -8 10 -17 10
-20 1 -63 33 -63 47 0 6 -12 15 -26 21 -20 10 -24 10 -18 0 6 -10 4 -10 -8 0
-10 8 -14 20 -11 29 5 12 2 15 -9 10 -9 -3 -26 3 -39 14 -12 10 -30 19 -39 19
-10 0 -24 8 -31 17 -12 15 -12 16 1 8 12 -6 13 -5 3 5 -9 10 -6 20 13 46 14
18 23 38 19 44 -4 6 -1 9 7 8 9 -2 16 16 22 57 5 33 11 62 12 64 6 7 59 7 76
-1 15 -7 18 5 8 32 -1 3 -2 13 -1 23 1 9 -3 17 -8 17 -6 0 -11 7 -11 16 0 23
-55 74 -80 74 -12 0 -19 4 -15 9 3 5 -2 16 -10 24 -21 22 -19 30 7 22 16 -6
20 -4 15 8 -3 9 1 17 13 20 11 3 18 2 17 -2 -1 -3 3 -6 8 -6 6 0 9 2 8 6 -1 3
7 10 18 17 12 8 19 9 19 1 0 -5 4 -8 9 -5 5 4 12 0 14 -6 4 -10 8 -10 15 1 7
9 12 10 16 2 4 -6 12 -9 17 -5 5 3 6 10 3 16 -4 5 5 2 20 -7 14 -10 26 -13 26
-7 0 5 -8 13 -17 16 -15 6 -15 8 -3 16 10 6 11 10 3 10 -7 0 -10 7 -6 16 4 10
-1 17 -16 21 -28 7 -27 33 2 34 17 1 18 2 4 6 -9 2 -15 8 -13 11 2 4 -2 13
-10 20 -11 10 -14 10 -14 0 0 -9 -3 -9 -11 2 -8 11 -12 12 -16 3 -7 -20 -22
-15 -20 6 0 11 5 17 9 15 4 -3 8 0 8 5 0 6 -9 11 -21 11 -11 0 -18 -4 -15 -8
6 -10 -40 -10 -50 1 -4 4 -18 -3 -31 -15 l-23 -21 0 21 c0 12 -5 22 -11 22 -5
0 -8 -3 -6 -7 3 -5 -5 -9 -18 -9 -25 -2 -28 18 -5 39 12 10 12 9 1 -6 -12 -15
-12 -17 3 -11 9 3 16 15 16 25 0 16 -3 18 -19 9 -11 -5 -23 -15 -26 -20 -3 -6
-15 -10 -26 -10 -13 0 -18 -4 -13 -12 5 -8 2 -9 -9 -5 -10 3 -17 2 -17 -3 0
-13 -37 -13 -45 0 -4 6 -16 5 -33 -1 -22 -8 -25 -8 -14 2 14 15 17 63 2 54 -5
-3 -10 1 -10 9 0 9 -6 16 -12 16 -8 1 -5 6 6 15 11 8 15 19 10 27 -6 10 -4 10
9 -1 16 -13 17 -12 7 14 -9 23 -8 26 3 17 7 -6 22 -9 32 -8 11 2 26 -1 32 -6
7 -6 20 -8 28 -4 9 3 13 2 10 -4 -3 -6 2 -11 12 -11 29 -2 48 2 51 12 2 5 8 6
14 3 6 -4 5 2 -1 15 -9 16 -9 21 0 21 6 0 13 -9 16 -20 3 -11 10 -20 17 -19
23 3 37 -1 32 -9 -3 -5 1 -9 9 -9 13 0 19 10 17 28 -1 3 11 4 25 1 17 -3 24
-1 19 6 -8 13 34 13 52 -1 21 -17 14 11 -10 33 l-22 20 22 0 c12 0 22 4 22 9
0 5 -8 7 -18 4 -12 -3 -18 2 -19 17 -1 11 2 18 8 15 5 -4 9 -1 9 5 0 7 6 10
13 7 8 -3 14 1 14 8 0 10 -5 11 -19 4 -16 -9 -18 -7 -13 21 3 17 1 30 -5 30
-5 0 -10 -5 -10 -11 0 -5 -5 -7 -11 -3 -8 4 -4 11 11 19 l22 12 -21 6 c-13 3
-19 1 -15 -5 4 -6 -8 -9 -30 -7 -24 2 -41 -2 -47 -11 -9 -12 -10 -11 -6 5 18
66 17 69 -3 32 -21 -39 -47 -46 -42 -11 2 18 2 18 -11 2 -8 -10 -16 -15 -19
-13 -3 3 -11 -1 -18 -10 -16 -19 -27 -19 -27 0 0 8 4 15 9 15 4 0 8 5 8 12 0
6 -13 0 -28 -15 -33 -32 -46 -34 -39 -7 4 16 2 18 -12 11 -10 -6 -23 -6 -32 0
-11 7 -10 9 5 9 11 0 17 3 13 6 -3 3 -22 1 -42 -6 -27 -9 -40 -9 -48 -1 -8 8
-7 11 3 11 10 0 11 3 3 11 -6 6 -9 19 -5 28 5 13 3 13 -13 -2 -12 -13 -27 -17
-45 -13 -15 2 -32 0 -37 -5 -24 -24 -22 12 2 49 29 44 36 68 36 130 1 81 -73
184 -144 199 -32 7 -38 14 -41 54 -2 20 2 28 10 25 21 -8 9 21 -19 50 -34 34
-30 38 16 19 32 -13 36 -13 31 0 -7 18 7 20 25 3 11 -11 13 -10 8 5 -6 15 -3
16 13 7 24 -13 33 -13 24 1 -4 7 1 7 16 -1 32 -17 45 1 20 28 -12 12 -18 22
-14 22 4 0 0 8 -9 18 -10 10 -15 21 -12 24 3 3 -16 12 -42 20 -43 14 -48 18
-50 49 -2 19 -5 40 -8 47 -2 6 3 12 11 12 8 0 12 5 9 10 -3 6 -14 10 -24 10
-10 0 -24 7 -31 15 -9 10 -9 15 -1 15 6 0 11 4 11 10 0 5 -3 9 -7 8 -5 -1 -21
2 -37 7 -24 7 -26 9 -12 17 11 6 22 6 32 -2 9 -9 14 -9 14 -2 0 16 -34 32 -64
32 -14 0 -26 4 -26 10 0 5 -3 9 -7 9 -22 -4 -43 3 -57 17 -15 14 -33 17 -166
24 -19 1 -30 4 -24 6 15 6 6 44 -10 44 -6 0 -4 5 4 10 12 8 11 10 -7 10 -13 0
-23 4 -23 8 0 5 -11 15 -25 22 -13 7 -22 17 -19 22 3 4 -2 11 -10 14 -10 4
-14 18 -13 44 1 24 5 36 12 32 5 -3 43 -27 84 -54 41 -26 76 -46 78 -44 2 2
-11 64 -30 138 l-34 135 111 81 c61 45 103 82 93 82 -9 0 -17 -6 -17 -12 0 -9
-3 -9 -9 1 -11 17 -51 22 -51 7 0 -7 -3 -7 -8 -1 -4 6 -11 11 -17 12 -29 4
-142 16 -156 15 -12 0 -25 30 -53 117 -20 65 -36 125 -36 134 0 49 -27 16 -83
-103z m-27 -531 c-12 -42 -38 -69 -64 -68 -11 1 -37 -2 -56 -6 -20 -5 -32 -4
-27 1 13 14 141 103 149 104 4 0 3 -14 -2 -31z m-516 -796 c-5 -24 -3 -25 12
-12 15 12 17 12 9 0 -6 -11 -4 -13 8 -8 21 8 30 -20 10 -32 -12 -6 -25 -3 -47
14 -17 12 -41 26 -53 30 -30 9 -29 20 1 20 13 0 22 -3 19 -7 -8 -14 8 -9 23 7
21 21 23 19 18 -12z m57 -66 c-6 -8 -8 -17 -4 -20 3 -4 1 -7 -5 -7 -18 0 -26
22 -11 31 21 13 33 11 20 -4z m46 -86 c-9 -11 -9 -15 1 -18 16 -6 5 -23 -15
-23 -10 0 -13 6 -9 16 3 8 2 12 -4 9 -6 -3 -10 3 -10 14 0 12 7 21 15 21 8 0
15 6 15 13 0 8 3 7 10 -3 6 -9 5 -19 -3 -29z m-662 -461 c3 -5 2 -10 -4 -10
-5 0 -13 5 -16 10 -3 6 -2 10 4 10 5 0 13 -4 16 -10z m-10 -470 c3 -5 1 -10
-4 -10 -6 0 -11 5 -11 10 0 6 2 10 4 10 3 0 8 -4 11 -10z m2220 -330 c-3 -5
-12 -10 -18 -10 -7 0 -6 4 3 10 19 12 23 12 15 0z m119 -68 c3 -5 -1 -9 -9 -9
-8 0 -12 4 -9 9 3 4 7 8 9 8 2 0 6 -4 9 -8z m-2441 -474 c-5 -38 -4 -41 9 -31
8 7 18 10 21 6 4 -3 7 0 7 8 1 10 4 8 11 -4 6 -10 8 -21 5 -24 -3 -4 -6 -1 -6
5 0 8 -7 9 -22 3 -33 -12 -68 7 -68 36 0 16 6 23 20 23 11 0 20 5 20 10 0 6 2
10 5 10 3 0 2 -19 -2 -42z m2470 -381 c4 3 7 1 7 -6 0 -8 -7 -11 -17 -7 -15 5
-15 4 1 -9 11 -8 15 -15 9 -15 -15 0 -30 22 -30 44 0 17 2 17 12 2 7 -8 15
-13 18 -9z m-2733 -12 c-7 -9 -15 -13 -19 -10 -3 3 1 10 9 15 21 14 24 12 10
-5z m2790 -43 c12 -4 13 -2 3 9 -7 7 -13 18 -13 23 0 6 7 0 16 -12 13 -19 14
-25 2 -39 -11 -14 -11 -16 1 -9 8 5 17 3 22 -5 13 -21 11 -36 -6 -36 -11 0
-12 4 -4 14 9 10 7 13 -10 13 -12 0 -21 6 -21 16 0 8 -7 22 -15 30 -8 9 -15
23 -15 32 0 12 4 10 13 -7 6 -14 19 -26 27 -29z m-2843 23 c0 -18 -23 -20 -33
-3 -4 6 -3 8 4 4 6 -3 13 -2 17 4 9 14 12 13 12 -5z m2599 -174 c-4 -6 -13
-11 -19 -10 -9 0 -9 2 1 6 6 2 12 9 12 14 0 6 -5 7 -12 3 -7 -5 -8 -3 -3 5 5
9 11 9 17 3 6 -6 7 -15 4 -21z m-218 -1 c-7 -11 -14 -16 -16 -10 -2 6 -9 7
-14 4 -7 -4 -8 -2 -4 5 4 6 11 9 16 6 5 -3 11 -1 15 5 3 5 8 10 11 10 2 0 -1
-9 -8 -20z m-2035 -18 c-31 -26 -32 -29 -17 -50 13 -20 13 -21 -1 -16 -8 3
-15 12 -15 20 0 8 -4 14 -10 14 -5 0 -10 -7 -10 -15 0 -8 -5 -15 -10 -15 -7 0
-6 8 1 23 7 12 12 24 12 27 1 3 6 11 13 17 10 10 13 10 17 0 3 -9 10 -7 23 6
10 9 21 17 24 17 3 -1 -10 -13 -27 -28z m2079 -22 c6 0 9 -3 6 -6 -9 -8 -48
14 -48 27 0 6 7 3 16 -5 8 -9 20 -16 26 -16z m193 20 c-3 -5 -11 -10 -16 -10
-6 0 -7 5 -4 10 3 6 11 10 16 10 6 0 7 -4 4 -10z m-2252 -15 c-3 -9 -8 -14
-10 -11 -3 3 -2 9 2 15 9 16 15 13 8 -4z m2007 -6 c0 -5 7 -9 15 -9 8 0 15 -4
15 -8 0 -10 -46 -9 -56 1 -5 4 0 5 11 1 20 -7 20 -7 1 15 -17 18 -17 21 -3 15
9 -3 17 -10 17 -15z m91 -53 c4 2 10 0 13 -5 4 -5 0 -8 -6 -7 -22 4 -58 26
-58 37 0 5 10 1 22 -10 11 -11 25 -18 29 -15z m-2386 5 c3 -5 0 -13 -6 -17 -7
-4 -9 -3 -5 4 3 5 0 13 -6 15 -9 4 -10 6 -1 6 6 1 14 -3 18 -8z m210 -11 c-3
-5 -1 -10 4 -10 6 0 11 -5 11 -10 0 -7 -7 -7 -20 0 -20 11 -19 30 1 30 6 0 7
-4 4 -10z m1028 -30 c-3 -12 -8 -19 -11 -16 -5 6 5 36 12 36 2 0 2 -9 -1 -20z
m30 5 c-3 -9 -8 -14 -10 -11 -3 3 -2 9 2 15 9 16 15 13 8 -4z m1340 -10 c-5
-16 -30 -15 -30 1 0 7 8 12 18 11 9 -1 15 -6 12 -12z m-1402 -28 c-10 -9 -11
-8 -5 6 3 10 9 15 12 12 3 -3 0 -11 -7 -18z m-459 -5 c-7 -2 -10 -8 -6 -13 3
-5 1 -9 -4 -9 -12 0 -23 26 -15 33 3 3 12 3 21 -1 10 -4 12 -7 4 -10z m528 8
c-8 -5 -18 -6 -22 -4 -4 3 -8 0 -8 -7 0 -7 -3 -10 -6 -6 -10 10 4 23 28 24 17
2 19 0 8 -7z m1237 -5 c0 -12 -3 -12 -16 -3 -9 7 -18 14 -20 15 -2 2 5 3 16 3
11 0 20 -7 20 -15z m-1808 -26 c-22 -13 -31 -11 -17 5 7 8 17 12 22 9 4 -3 2
-9 -5 -14z m491 0 c0 -14 -17 -10 -23 5 -4 10 -1 13 9 9 7 -3 14 -9 14 -14z
m27 -1 c-3 -8 -6 -5 -6 6 -1 11 2 17 5 13 3 -3 4 -12 1 -19z m69 3 c0 -11 -4
-17 -8 -15 -4 3 -8 12 -8 20 0 8 4 14 8 14 4 0 8 -9 8 -19z m1124 10 c0 -5 -8
-12 -17 -15 -10 -4 -13 -10 -8 -14 6 -4 12 -16 13 -27 4 -19 3 -19 -20 3 -14
12 -29 19 -33 15 -5 -5 -3 0 4 9 7 10 17 15 22 12 5 -3 12 2 15 10 7 17 24 22
24 7z m49 -4 c13 4 13 2 -2 -7 -9 -6 -21 -9 -26 -5 -5 3 -13 0 -17 -6 -4 -7
-3 -9 4 -5 6 3 13 2 17 -4 3 -5 4 -10 1 -10 -2 0 -11 -3 -19 -6 -16 -6 -17 6
-2 39 5 12 11 15 18 8 5 -5 17 -7 26 -4z m161 -2 c-7 -9 -15 -13 -19 -10 -3 3
1 10 9 15 21 14 24 12 10 -5z m-1479 -18 c-10 -9 -11 -8 -5 6 3 10 9 15 12 12
3 -3 0 -11 -7 -18z m109 8 c-7 -9 -15 -13 -19 -10 -3 3 1 10 9 15 21 14 24 12
10 -5z m-80 -25 c0 -5 -4 -10 -10 -10 -5 0 -10 5 -10 10 0 6 5 10 10 10 6 0
10 -4 10 -10z m40 6 c0 -2 -7 -7 -16 -10 -8 -3 -12 -2 -9 4 6 10 25 14 25 6z
m66 -11 c4 -8 10 -12 15 -9 5 3 9 3 9 0 0 -15 -19 -12 -33 5 -9 10 -12 19 -7
19 6 0 13 -7 16 -15z m-46 -5 c-8 -5 -19 -10 -25 -10 -5 0 -3 5 5 10 8 5 20
10 25 10 6 0 3 -5 -5 -10z m357 4 c-3 -3 -12 -4 -19 -1 -8 3 -5 6 6 6 11 1 17
-2 13 -5z m-434 -50 c-7 -18 -19 -18 -26 0 -4 11 -1 13 11 9 14 -5 15 -3 5 8
-7 7 -13 18 -13 24 0 5 7 2 15 -8 7 -11 11 -25 8 -33z m111 30 c3 -8 2 -12 -4
-9 -6 3 -10 10 -10 16 0 14 7 11 14 -7z m-74 -4 c0 -5 -4 -10 -10 -10 -5 0
-10 5 -10 10 0 6 5 10 10 10 6 0 10 -4 10 -10z m390 -4 c0 -2 -7 -7 -16 -10
-8 -3 -12 -2 -9 4 6 10 25 14 25 6z m737 -32 c-12 -14 -23 -20 -25 -14 -3 8
-8 7 -19 -1 -23 -20 -69 -18 -69 2 0 9 6 15 13 12 7 -3 10 -10 6 -16 -3 -6 -1
-7 6 -3 6 4 9 11 6 16 -3 5 -1 11 5 15 5 3 10 1 10 -4 0 -17 52 -8 63 11 6 9
14 15 19 12 4 -3 -3 -16 -15 -30z m-1887 5 c0 -9 20 -6 39 5 10 6 12 5 7 -2
-6 -11 5 -16 26 -13 3 0 5 -7 3 -17 -2 -9 -4 -20 -4 -24 -1 -5 -6 -8 -12 -8
-5 0 -8 4 -5 9 6 9 -22 26 -37 22 -12 -2 -47 18 -47 28 0 4 7 8 15 8 8 0 15
-4 15 -8z m911 -6 c13 -16 12 -17 -3 -4 -16 12 -18 11 -18 -4 0 -10 -3 -16 -6
-12 -6 6 2 37 9 37 3 0 11 -8 18 -17z m249 7 c0 -5 -4 -10 -10 -10 -5 0 -10 5
-10 10 0 6 5 10 10 10 6 0 10 -4 10 -10z m-880 -20 c5 -9 4 -20 -2 -27 -9 -11
-13 -10 -25 4 -14 17 -14 17 -9 1 6 -21 2 -22 -23 -6 -18 11 -18 12 2 29 24
19 45 19 57 -1z m-136 -7 c4 -11 1 -11 -14 -3 -24 13 -25 17 -5 17 8 0 16 -6
19 -14z m1056 7 c0 -5 -7 -7 -15 -4 -8 4 -15 8 -15 10 0 2 7 4 15 4 8 0 15 -4
15 -10z m-691 -26 c-7 -8 -6 -13 3 -16 8 -3 6 -7 -6 -11 -9 -4 -15 -3 -11 2 3
5 1 12 -5 16 -17 10 -11 24 9 22 14 -1 17 -5 10 -13z m656 6 c10 9 15 9 15 1
0 -6 -5 -11 -12 -11 -6 0 -3 -9 7 -20 10 -11 13 -20 7 -20 -24 0 -11 -15 13
-16 21 -2 24 1 14 12 -8 10 -8 14 0 14 6 0 11 -5 11 -11 0 -5 5 -7 10 -4 6 3
10 1 10 -4 0 -6 -5 -11 -11 -11 -5 0 -8 -4 -5 -9 4 -5 17 -8 30 -7 17 2 23 -1
19 -10 -6 -16 -20 -18 -25 -4 -2 6 -9 1 -16 -10 -11 -19 -10 -20 13 -16 13 3
30 8 37 12 18 11 48 12 42 2 -4 -5 -12 -7 -20 -4 -10 4 -13 -1 -10 -17 3 -16
10 -21 27 -20 23 3 23 2 5 -11 -10 -8 -15 -19 -12 -24 3 -6 -2 -9 -11 -7 -10
1 -26 -4 -35 -12 -22 -19 -38 -9 -30 19 4 17 2 20 -11 15 -11 -4 -21 1 -28 15
-9 16 -8 19 2 12 20 -12 49 -12 56 0 3 6 3 8 -2 4 -4 -4 -17 -2 -29 4 -11 7
-25 11 -29 10 -5 -1 -5 3 -1 10 6 9 3 9 -9 -1 -9 -7 -17 -10 -17 -5 0 4 -5 3
-11 -3 -6 -6 -18 -9 -27 -6 -9 4 -13 2 -9 -4 4 -6 15 -13 26 -16 15 -4 18 -1
13 12 -5 14 -4 14 11 2 20 -16 12 -35 -10 -26 -9 3 -23 -1 -32 -9 -27 -25 -54
-14 -56 23 -1 18 3 35 8 38 6 3 7 1 3 -5 -4 -7 -2 -12 3 -12 6 0 11 -5 11 -11
0 -5 -5 -7 -12 -3 -7 4 -8 3 -4 -4 11 -18 35 -2 31 20 -3 11 -2 18 2 15 3 -4
14 -2 25 4 18 10 18 12 4 28 -19 20 -20 31 -5 31 5 0 8 -4 5 -9 -3 -5 0 -14 7
-20 11 -8 14 -5 14 18 0 22 -4 28 -16 24 -13 -4 -13 -3 -2 5 11 8 9 11 -8 17
-11 3 -21 11 -21 17 0 6 6 6 15 -2 12 -10 18 -10 30 0z m65 -25 c0 -5 -5 -3
-10 5 -5 8 -10 20 -10 25 0 6 5 3 10 -5 5 -8 10 -19 10 -25z m-26 10 c3 -8 1
-15 -4 -15 -6 0 -10 7 -10 15 0 8 2 15 4 15 2 0 6 -7 10 -15z m312 -11 c-3 -8
-2 -13 3 -9 11 6 9 -14 -3 -34 -6 -10 -5 -12 3 -7 6 4 14 0 17 -9 6 -14 8 -14
21 2 19 23 13 7 -12 -34 -11 -18 -24 -33 -28 -33 -5 0 -5 6 0 13 13 20 13 41
0 49 -7 4 -12 12 -12 18 0 6 -7 15 -15 20 -10 7 -11 10 -2 10 6 0 11 3 11 8
-3 15 1 22 12 22 6 0 8 -7 5 -16z m48 4 c-3 -4 4 -8 15 -8 12 0 21 -4 21 -10
0 -14 -12 -12 -40 7 -20 13 -22 14 -13 2 7 -9 10 -19 6 -23 -4 -4 0 -4 9 -1 9
4 19 1 23 -5 5 -8 11 -8 21 1 8 7 14 7 14 1 0 -15 -31 -24 -45 -12 -8 6 -15 6
-23 -2 -7 -7 -12 -10 -13 -7 -9 48 -6 68 11 66 10 -1 16 -5 14 -9z m176 2 c0
-5 -4 -10 -10 -10 -5 0 -10 5 -10 10 0 6 5 10 10 10 6 0 10 -4 10 -10z m-970
-17 c10 10 10 8 0 -9 -7 -11 -18 -21 -24 -21 -6 0 -18 -2 -26 -4 -16 -4 -21
22 -6 33 6 4 17 3 26 -2 11 -6 22 -5 30 3z m-293 -18 c0 -8 -4 -15 -8 -15 -11
0 -20 16 -12 24 11 11 20 7 20 -9z m647 -17 c15 -30 15 -31 -2 -15 -10 10 -19
24 -19 32 0 21 4 19 21 -17z m141 12 c3 -5 1 -10 -4 -10 -6 0 -11 5 -11 10 0
6 2 10 4 10 3 0 8 -4 11 -10z m35 0 c0 -5 -5 -10 -11 -10 -5 0 -7 5 -4 10 3 6
8 10 11 10 2 0 4 -4 4 -10z m-706 -32 c4 3 4 -1 0 -11 -8 -23 -21 -21 -34 4
-10 18 -10 19 8 10 11 -6 22 -7 26 -3z m749 -129 c-6 -6 -18 -6 -28 -3 -18 7
-18 8 1 14 23 9 39 1 27 -11z m-278 1 c3 -5 -1 -10 -10 -10 -9 0 -13 5 -10 10
3 6 8 10 10 10 2 0 7 -4 10 -10z m-155 -60 c0 -5 -7 -7 -15 -4 -8 4 -15 8 -15
10 0 2 7 4 15 4 8 0 15 -4 15 -10z m73 -10 c3 -11 1 -20 -4 -20 -5 0 -9 9 -9
20 0 11 2 20 4 20 2 0 6 -9 9 -20z"/>
<path d="M1280 950 c-9 -6 -10 -10 -3 -10 6 0 15 5 18 10 8 12 4 12 -15 0z"/>
<path d="M1717 671 c-10 -14 -10 -14 5 -3 11 9 18 10 23 2 3 -5 12 -10 18 -9
9 0 8 2 -1 6 -6 2 -10 8 -8 12 10 15 -25 7 -37 -8z"/>
<path d="M2650 557 c-13 -18 -17 -26 -7 -18 9 7 17 10 17 6 0 -4 6 -3 13 4 10
7 17 7 24 0 8 -8 13 -7 18 2 5 7 1 17 -10 26 -25 17 -26 17 -55 -20z m40 19
c0 -2 -8 -10 -17 -17 -16 -13 -17 -12 -4 4 13 16 21 21 21 13z"/>
<path d="M2752 518 c0 -7 -3 -26 -6 -43 -5 -21 -4 -26 3 -15 5 8 8 17 5 21 -2
4 3 10 12 13 8 3 12 2 9 -3 -3 -5 0 -13 6 -16 7 -5 9 -1 7 11 -2 11 -10 18
-18 16 -11 -3 -11 0 0 12 10 13 10 16 -2 16 -8 0 -15 -6 -16 -12z"/>
<path d="M2599 493 c-13 -16 -12 -17 4 -4 16 13 21 21 13 21 -2 0 -10 -8 -17
-17z"/>
<path d="M2205 600 c-3 -6 1 -7 9 -4 18 7 21 14 7 14 -6 0 -13 -4 -16 -10z"/>
<path d="M1950 3739 c0 -5 5 -7 10 -4 6 3 10 8 10 11 0 2 -4 4 -10 4 -5 0 -10
-5 -10 -11z"/>
<path d="M1316 1823 c-6 -14 -5 -15 5 -6 7 7 10 15 7 18 -3 3 -9 -2 -12 -12z"/>
<path d="M950 1406 c-7 -10 -4 -13 15 -12 32 2 41 12 16 19 -11 3 -25 -1 -31
-7z"/>
<path d="M3801 1366 c-8 -10 -9 -16 -1 -21 5 -3 10 -5 11 -3 4 18 7 38 4 38
-1 0 -8 -6 -14 -14z"/>
<path d="M3950 1356 c0 -2 8 -10 18 -17 15 -13 16 -12 3 4 -13 16 -21 21 -21
13z"/>
<path d="M3907 1337 c-3 -8 1 -14 8 -14 7 0 11 6 8 14 -3 7 -6 13 -8 13 -2 0
-5 -6 -8 -13z"/>
<path d="M3940 1320 c0 -6 7 -10 15 -10 8 0 15 2 15 4 0 2 -7 6 -15 10 -8 3
-15 1 -15 -4z"/>
<path d="M3989 1299 c5 -6 7 -17 5 -24 -3 -7 -1 -15 4 -19 13 -8 8 33 -6 44
-8 7 -9 7 -3 -1z"/>
<path d="M3990 1237 c0 -2 6 -10 14 -16 11 -9 16 -9 22 1 4 7 4 10 -1 6 -4 -4
-14 -3 -22 3 -7 6 -13 9 -13 6z"/>
<path d="M995 1130 c-3 -6 1 -7 9 -4 18 7 21 14 7 14 -6 0 -13 -4 -16 -10z"/>
<path d="M1050 1115 c29 -17 22 -19 -14 -5 -21 8 -24 7 -19 -8 6 -15 5 -15
-10 -4 -16 14 -42 8 -32 -8 3 -5 -13 -7 -35 -6 -23 2 -43 0 -45 -4 -2 -3 21
-6 50 -6 46 0 52 2 42 15 -10 11 -9 13 3 9 8 -3 15 -14 14 -26 0 -13 4 -18 14
-14 12 4 12 1 3 -15 -8 -17 -7 -22 4 -27 8 -3 22 -3 30 0 11 5 13 2 9 -9 -4
-11 0 -15 15 -14 14 1 17 5 11 13 -10 11 -3 24 12 24 5 0 7 -4 3 -9 -3 -5 0
-13 6 -17 7 -4 9 -3 6 3 -7 11 20 28 37 24 5 -1 4 5 -3 13 -10 12 -18 13 -32
5 -10 -5 -19 -6 -19 -2 0 4 -4 2 -9 -5 -7 -11 -9 -10 -14 3 -5 10 -3 14 5 9 6
-4 8 -3 5 2 -3 6 6 11 21 12 51 3 62 5 62 14 0 4 -3 8 -7 9 -5 0 -16 2 -25 4
-10 2 -21 -1 -24 -6 -3 -6 -11 -5 -20 2 -7 6 -11 16 -7 22 3 6 1 7 -5 3 -7 -4
-12 -3 -12 1 0 5 -10 9 -22 10 -22 2 -22 1 2 -12z m40 -33 c6 -7 7 -10 4 -7
-4 3 -13 0 -20 -6 -10 -8 -11 -17 -3 -33 9 -19 9 -19 -4 -3 -17 21 -28 22 -21
2 4 -8 1 -15 -6 -15 -6 0 -10 8 -8 18 1 9 -1 23 -5 30 -5 6 -6 16 -2 21 7 13
53 7 65 -7z m45 -42 c-3 -5 -12 -10 -18 -10 -7 0 -6 4 3 10 19 12 23 12 15 0z"/>
<path d="M1065 1080 c-3 -5 -12 -7 -20 -3 -8 3 -15 3 -15 0 0 -13 30 -14 40
-1 7 8 10 14 7 14 -3 0 -8 -4 -12 -10z"/>
<path d="M846 1102 c-3 -5 1 -9 9 -9 8 0 12 4 9 9 -3 4 -7 8 -9 8 -2 0 -6 -4
-9 -8z"/>
<path d="M3876 1055 c-9 -26 -7 -32 5 -12 6 10 9 21 6 23 -2 3 -7 -2 -11 -11z"/>
<path d="M946 1044 c-5 -14 -4 -15 9 -4 17 14 19 20 6 20 -5 0 -12 -7 -15 -16z"/>
<path d="M980 1053 c0 -7 0 -16 1 -20 0 -4 -8 -10 -18 -14 -15 -6 -15 -8 -2
-8 24 -1 40 21 29 39 -7 10 -10 11 -10 3z"/>
<path d="M3895 1041 c-3 -5 -2 -12 3 -15 5 -3 9 1 9 9 0 17 -3 19 -12 6z"/>
<path d="M3926 1038 c3 -5 10 -6 15 -3 13 9 11 12 -6 12 -8 0 -12 -4 -9 -9z"/>
<path d="M916 993 c-6 -14 -5 -15 5 -6 7 7 10 15 7 18 -3 3 -9 -2 -12 -12z"/>
<path d="M986 1001 c-4 -5 3 -7 14 -4 23 6 26 13 6 13 -8 0 -17 -4 -20 -9z"/>
<path d="M1036 987 c3 -10 9 -15 12 -12 3 3 0 11 -7 18 -10 9 -11 8 -5 -6z"/>
<path d="M1015 980 c6 -10 4 -12 -11 -6 -15 6 -17 5 -6 -5 9 -9 15 -10 23 -2
8 8 7 13 -2 18 -8 6 -10 4 -4 -5z"/>
<path d="M975 951 c-3 -5 -2 -12 3 -15 5 -3 9 1 9 9 0 17 -3 19 -12 6z"/>
<path d="M935 941 c-3 -5 -2 -12 3 -15 5 -3 9 1 9 9 0 17 -3 19 -12 6z"/>
<path d="M3580 880 c-8 -5 -10 -10 -5 -10 6 0 17 5 25 10 8 5 11 10 5 10 -5 0
-17 -5 -25 -10z"/>
<path d="M1215 840 c3 -5 8 -10 11 -10 2 0 4 5 4 10 0 6 -5 10 -11 10 -5 0 -7
-4 -4 -10z"/>
<path d="M3434 839 c-8 -14 14 -19 25 -6 8 10 7 14 -5 14 -8 0 -17 -4 -20 -8z"/>
<path d="M3710 836 c0 -8 4 -17 9 -20 5 -4 7 3 4 14 -6 23 -13 26 -13 6z"/>
<path d="M3377 833 c-4 -3 -7 -11 -7 -16 0 -6 3 -7 6 -4 4 3 16 1 28 -5 21
-11 21 -11 2 11 -22 24 -20 23 -29 14z"/>
<path d="M3748 813 c7 -3 16 -2 19 1 4 3 -2 6 -13 5 -11 0 -14 -3 -6 -6z"/>
<path d="M3310 770 c-11 -11 -20 -15 -20 -9 0 5 -5 7 -11 3 -8 -5 -6 -10 5
-16 9 -5 14 -13 12 -17 -3 -4 1 -8 9 -8 7 0 12 8 10 19 -2 10 6 24 18 33 12 8
16 15 9 15 -6 0 -21 -9 -32 -20z"/>
<path d="M3696 781 c-3 -4 4 -17 17 -27 l22 -19 -18 21 c-14 17 -15 23 -5 27
9 4 9 6 1 6 -6 1 -14 -3 -17 -8z"/>
<path d="M1533 765 c0 -8 4 -12 9 -9 5 3 6 10 3 15 -9 13 -12 11 -12 -6z"/>
<path d="M1778 758 c14 -14 16 -29 3 -25 -15 4 -15 -7 -1 -29 8 -13 20 -20 32
-16 10 2 18 -1 18 -7 0 -7 -4 -10 -9 -6 -5 3 -13 1 -16 -5 -4 -6 -3 -10 2 -9
15 4 43 -13 37 -22 -3 -5 0 -9 6 -9 7 0 9 8 4 22 -6 20 -5 21 9 9 14 -11 20
-10 39 6 27 22 33 40 12 40 -7 0 -14 -4 -14 -9 0 -5 -5 -6 -10 -3 -6 3 -13 -1
-16 -9 -5 -12 -10 -13 -24 -4 -17 11 -17 13 -3 23 12 9 13 16 5 31 -6 10 -12
15 -12 10 0 -5 -7 -2 -16 5 -22 18 -64 25 -46 7z m46 -24 c3 -8 10 -12 16 -9
5 3 10 1 10 -4 0 -6 -3 -12 -7 -12 -38 -7 -55 -4 -65 10 -12 14 -11 14 5 2 17
-13 23 -7 18 22 -2 14 17 7 23 -9z m75 -61 c-6 -7 -17 -13 -23 -12 -7 0 -6 2
2 6 6 2 10 8 8 12 -3 4 1 8 9 8 11 0 12 -4 4 -14z"/>
<path d="M1810 720 c0 -5 5 -10 11 -10 5 0 7 5 4 10 -3 6 -8 10 -11 10 -2 0
-4 -4 -4 -10z"/>
<path d="M3670 751 c0 -5 5 -13 10 -16 6 -3 10 -2 10 4 0 5 -4 13 -10 16 -5 3
-10 2 -10 -4z"/>
<path d="M1124 742 c3 -5 0 -13 -6 -15 -9 -4 -10 -6 -1 -6 17 -1 25 16 12 25
-7 4 -9 3 -5 -4z"/>
<path d="M3575 740 c-4 -6 1 -7 11 -3 13 5 15 3 9 -7 -5 -9 -4 -11 4 -6 6 4 9
12 6 17 -8 12 -22 12 -30 -1z"/>
<path d="M3484 724 c-18 -14 -18 -15 4 -4 12 6 22 13 22 15 0 8 -5 6 -26 -11z"/>
<path d="M1118 703 c7 -3 16 -2 19 1 4 3 -2 6 -13 5 -11 0 -14 -3 -6 -6z"/>
<path d="M3475 700 c-16 -7 -17 -9 -3 -9 9 -1 20 4 23 9 7 11 7 11 -20 0z"/>
<path d="M2240 690 c-8 -5 -11 -13 -6 -17 5 -4 11 -2 13 4 3 9 10 9 28 -3 16
-10 22 -21 18 -32 -6 -14 -4 -15 9 -4 12 10 18 10 27 -2 9 -10 8 -16 -5 -27
-9 -7 -23 -14 -31 -15 -19 -3 -31 -14 -35 -34 -2 -8 -12 -23 -23 -33 -20 -18
-20 -18 5 -3 14 9 26 21 26 26 1 6 2 15 3 20 0 6 6 10 12 10 6 0 9 -7 5 -15
-3 -8 -1 -15 4 -15 5 0 12 9 15 20 4 11 11 18 16 14 6 -4 6 -11 -2 -20 -8 -10
-8 -14 0 -14 6 0 11 5 11 12 0 6 7 3 16 -8 14 -18 15 -18 4 4 -6 12 -8 22 -4
22 3 0 2 6 -4 13 -8 10 -6 16 9 25 24 15 25 35 2 28 -11 -3 -31 6 -52 24 -37
33 -39 34 -61 20z"/>
<path d="M3556 687 c3 -10 9 -15 12 -12 3 3 0 11 -7 18 -10 9 -11 8 -5 -6z"/>
<path d="M3420 676 c0 -2 7 -7 16 -10 8 -3 12 -2 9 4 -6 10 -25 14 -25 6z"/>
<path d="M3460 666 c0 -2 8 -10 18 -17 15 -13 16 -12 3 4 -13 16 -21 21 -21
13z"/>
<path d="M1420 640 c0 -6 4 -9 9 -6 5 4 12 1 14 -4 3 -6 4 -5 3 2 -3 15 -26
23 -26 8z"/>
<path d="M1810 640 c0 -5 5 -10 10 -10 6 0 10 5 10 10 0 6 -4 10 -10 10 -5 0
-10 -4 -10 -10z"/>
<path d="M3330 635 c0 -8 2 -15 4 -15 2 0 6 7 10 15 3 8 1 15 -4 15 -6 0 -10
-7 -10 -15z"/>
<path d="M2034 626 c3 -20 17 -36 27 -30 6 4 6 10 0 18 -6 7 -9 15 -6 18 3 2
-1 5 -9 5 -7 0 -13 -5 -12 -11z"/>
<path d="M3386 623 c-6 -14 -5 -15 5 -6 7 7 10 15 7 18 -3 3 -9 -2 -12 -12z"/>
<path d="M1395 613 c1 -10 -2 -25 -8 -33 -9 -12 -9 -13 3 -3 16 15 24 53 11
53 -5 0 -8 -8 -6 -17z"/>
<path d="M1510 620 c0 -5 5 -10 10 -10 6 0 10 5 10 10 0 6 -4 10 -10 10 -5 0
-10 -4 -10 -10z"/>
<path d="M1555 613 l-20 -16 20 8 c11 4 29 7 40 7 16 -1 17 1 5 8 -20 13 -21
12 -45 -7z"/>
<path d="M3262 616 c10 -7 15 -16 11 -20 -4 -4 0 -4 10 0 17 6 17 7 0 20 -10
7 -22 13 -28 13 -5 0 -2 -6 7 -13z"/>
<path d="M3350 620 c0 -5 5 -10 11 -10 5 0 7 5 4 10 -3 6 -8 10 -11 10 -2 0
-4 -4 -4 -10z"/>
<path d="M1616 603 c-6 -14 -5 -15 5 -6 7 7 10 15 7 18 -3 3 -9 -2 -12 -12z"/>
<path d="M1834 608 c10 -6 22 -6 26 -2 5 5 -3 10 -18 11 -22 1 -24 0 -8 -9z"/>
<path d="M2153 605 c0 -8 4 -12 9 -9 5 3 6 10 3 15 -9 13 -12 11 -12 -6z"/>
<path d="M1446 601 c-3 -4 6 -7 19 -7 14 0 22 2 19 5 -8 8 -34 10 -38 2z"/>
<path d="M1873 590 c-11 -16 -10 -18 2 -14 8 4 15 12 15 20 0 19 -3 18 -17 -6z"/>
<path d="M3228 603 c7 -3 16 -2 19 1 4 3 -2 6 -13 5 -11 0 -14 -3 -6 -6z"/>
<path d="M3330 600 c0 -5 5 -10 11 -10 5 0 7 5 4 10 -3 6 -8 10 -11 10 -2 0
-4 -4 -4 -10z"/>
<path d="M1907 587 c-3 -7 3 -13 14 -13 13 0 15 3 7 13 -6 7 -12 13 -13 13 -2
0 -5 -6 -8 -13z"/>
<path d="M3200 596 c0 -13 37 -24 51 -15 12 9 12 10 -1 6 -8 -2 -23 0 -32 5
-10 5 -18 6 -18 4z"/>
<path d="M1455 571 c-3 -5 -2 -12 3 -15 5 -3 9 1 9 9 0 17 -3 19 -12 6z"/>
<path d="M1593 565 c0 -8 4 -12 9 -9 5 3 6 10 3 15 -9 13 -12 11 -12 -6z"/>
<path d="M1980 565 c0 -2 15 -12 33 -20 l32 -16 -25 20 c-24 20 -40 26 -40 16z"/>
<path d="M3100 560 c-8 -5 -10 -10 -5 -10 6 0 17 5 25 10 8 5 11 10 5 10 -5 0
-17 -5 -25 -10z"/>
<path d="M3193 548 c-2 -18 0 -20 7 -8 12 18 13 30 2 30 -4 0 -9 -10 -9 -22z"/>
<path d="M3250 560 c0 -5 5 -10 10 -10 6 0 10 5 10 10 0 6 -4 10 -10 10 -5 0
-10 -4 -10 -10z"/>
<path d="M2201 552 c-1 -7 -5 -11 -10 -7 -6 3 -14 -3 -20 -12 -9 -16 -12 -16
-21 -3 -6 9 -10 10 -10 3 0 -20 22 -27 34 -11 6 8 19 14 28 12 10 -1 21 3 25
8 3 6 1 8 -5 4 -5 -3 -13 0 -15 6 -4 10 -6 10 -6 0z"/>
<path d="M3060 540 c0 -6 4 -9 9 -6 5 4 12 1 14 -4 3 -6 4 -5 3 2 -3 15 -26
23 -26 8z"/>
<path d="M3330 540 c0 -5 5 -10 11 -10 5 0 7 5 4 10 -3 6 -8 10 -11 10 -2 0
-4 -4 -4 -10z"/>
<path d="M2081 520 c-13 -11 -18 -20 -13 -20 6 0 14 5 17 11 4 6 17 14 29 19
12 5 15 9 6 9 -8 0 -26 -9 -39 -19z"/>
<path d="M3107 528 c-3 -8 5 -14 19 -14 13 -1 24 3 24 9 0 6 -3 7 -7 4 -3 -4
-12 -2 -18 3 -9 7 -14 7 -18 -2z"/>
<path d="M3213 526 c0 -15 22 -15 34 0 4 5 4 6 -1 2 -5 -4 -14 -3 -21 2 -8 7
-12 5 -12 -4z"/>
<path d="M1480 526 c0 -2 8 -10 18 -17 15 -13 16 -12 3 4 -13 16 -21 21 -21
13z"/>
<path d="M2270 520 c0 -6 7 -10 15 -10 8 0 15 2 15 4 0 2 -7 6 -15 10 -8 3
-15 1 -15 -4z"/>
<path d="M2020 500 c-8 -5 -10 -10 -5 -10 6 0 17 5 25 10 8 5 11 10 5 10 -5 0
-17 -5 -25 -10z"/>
<path d="M2095 500 c-5 -9 -4 -11 3 -6 16 10 15 -6 0 -24 -11 -12 -10 -12 2
-3 8 6 22 9 31 8 17 -3 20 17 5 32 -4 4 -7 4 -6 -2 5 -23 -1 -28 -13 -10 -11
14 -16 15 -22 5z"/>
<path d="M3070 501 c0 -6 4 -12 8 -15 5 -3 9 1 9 9 0 8 -4 15 -9 15 -4 0 -8
-4 -8 -9z"/>
<path d="M2053 470 c1 -21 10 -18 13 5 1 8 -2 15 -6 15 -5 0 -8 -9 -7 -20z"/>
<path d="M3024 464 c-18 -14 -18 -15 4 -4 12 6 22 13 22 15 0 8 -5 6 -26 -11z"/>
<path d="M3215 460 c3 -5 8 -10 11 -10 2 0 4 5 4 10 0 6 -5 10 -11 10 -5 0 -7
-4 -4 -10z"/>
<path d="M3026 441 c-4 -5 3 -7 14 -4 23 6 26 13 6 13 -8 0 -17 -4 -20 -9z"/>
<path d="M3097 435 c-4 -8 -3 -16 1 -19 4 -3 9 4 9 15 2 23 -3 25 -10 4z"/>
<path d="M2290 420 c-9 -6 -10 -10 -3 -10 6 0 15 5 18 10 8 12 4 12 -15 0z"/>
<path d="M2577 423 c-3 -5 0 -17 4 -28 8 -18 9 -18 5 3 -3 17 -1 22 10 18 8
-3 14 -1 14 4 0 12 -27 13 -33 3z"/>
<path d="M2236 407 c3 -10 9 -15 12 -12 3 3 0 11 -7 18 -10 9 -11 8 -5 -6z"/>
<path d="M2305 404 c-10 -8 -14 -14 -8 -14 7 0 15 5 19 11 5 8 9 8 14 -1 5 -8
10 -8 14 -2 10 16 -18 21 -39 6z"/>
<path d="M2718 408 c-7 -17 15 -19 29 -3 4 4 3 5 -4 2 -6 -4 -13 -2 -15 5 -3
8 -6 6 -10 -4z"/>
<path d="M2640 401 c0 -5 7 -12 16 -15 14 -5 15 -4 4 9 -14 17 -20 19 -20 6z"/>
<path d="M2800 400 c0 -5 5 -10 11 -10 5 0 7 5 4 10 -3 6 -8 10 -11 10 -2 0
-4 -4 -4 -10z"/>
<path d="M3279 393 c-13 -16 -12 -17 4 -4 16 13 21 21 13 21 -2 0 -10 -8 -17
-17z"/>
<path d="M2753 375 c0 -8 4 -12 9 -9 4 3 8 9 8 15 0 5 -4 9 -8 9 -5 0 -9 -7
-9 -15z"/>
<path d="M2310 370 c0 -5 7 -7 15 -4 8 4 15 8 15 10 0 2 -7 4 -15 4 -8 0 -15
-4 -15 -10z"/>
<path d="M2260 366 c0 -2 8 -10 18 -17 15 -13 16 -12 3 4 -13 16 -21 21 -21
13z"/>
<path d="M2800 360 c-9 -6 -10 -10 -3 -10 6 0 15 5 18 10 8 12 4 12 -15 0z"/>
<path d="M2550 346 c0 -2 7 -7 16 -10 8 -3 12 -2 9 4 -6 10 -25 14 -25 6z"/>
<path d="M2730 339 c0 -5 5 -7 10 -4 6 3 10 8 10 11 0 2 -4 4 -10 4 -5 0 -10
-5 -10 -11z"/>
<path d="M2315 329 c-4 -6 -5 -12 -2 -15 2 -3 7 2 10 11 7 17 1 20 -8 4z"/>
<path d="M2385 320 c-3 -5 -1 -10 4 -10 6 0 11 5 11 10 0 6 -2 10 -4 10 -3 0
-8 -4 -11 -10z"/>
<path d="M2455 320 c3 -5 8 -10 11 -10 2 0 4 5 4 10 0 6 -5 10 -11 10 -5 0 -7
-4 -4 -10z"/>
<path d="M3017 315 c-4 -8 -3 -16 1 -19 4 -3 9 4 9 15 2 23 -3 25 -10 4z"/>
<path d="M2446 291 c-19 -7 -19 -8 0 -13 13 -3 21 0 21 8 0 8 -1 14 -1 13 -1
0 -10 -4 -20 -8z"/>
<path d="M2363 279 c9 -6 14 -15 11 -21 -4 -7 -2 -8 5 -4 14 9 -3 36 -23 36
-6 0 -3 -5 7 -11z"/>
<path d="M2826 282 c-3 -5 1 -9 9 -9 8 0 12 4 9 9 -3 4 -7 8 -9 8 -2 0 -6 -4
-9 -8z"/>
<path d="M2995 270 c-4 -6 -11 -7 -17 -4 -7 4 -8 2 -4 -5 6 -9 11 -9 22 0 14
11 18 19 10 19 -3 0 -8 -5 -11 -10z"/>
<path d="M2475 261 c-3 -5 -2 -12 3 -15 5 -3 9 1 9 9 0 17 -3 19 -12 6z"/>
<path d="M2896 253 c-6 -14 -5 -15 5 -6 7 7 10 15 7 18 -3 3 -9 -2 -12 -12z"/>
<path d="M2486 222 c-3 -5 1 -9 9 -9 8 0 12 4 9 9 -3 4 -7 8 -9 8 -2 0 -6 -4
-9 -8z"/>
</g>
</svg>
